/* XPM */
static char * close_active_xpm[] = {
"24 24 44 1",
" 	c None",
".	c #454240",
"+	c #5F4A39",
"@	c #89562D",
"#	c #B66420",
"$	c #D16C18",
"%	c #FF5400",
"&	c #C1671D",
"*	c #84552E",
"=	c #54473C",
"-	c #5A483A",
";	c #AC6123",
">	c #A76023",
",	c #785131",
"'	c #745032",
")	c #83552E",
"!	c #985A28",
"~	c #7D5330",
"{	c #7A5230",
"]	c #50453D",
"^	c #88562D",
"/	c #ECD1BB",
"(	c #ECD5C1",
"_	c #F37518",
":	c #F37618",
"<	c #ECD6C2",
"[	c #ECD0B9",
"}	c #89562C",
"|	c #EDEDED",
"1	c #ECD8C7",
"2	c #ECD8C8",
"3	c #ECD4C0",
"4	c #D06C18",
"5	c #F47618",
"6	c #ECD7C6",
"7	c #ECDACB",
"8	c #F0781D",
"9	c #ED7B21",
"0	c #BC651E",
"a	c #925A2A",
"b	c #EBD0B8",
"c	c #A25E25",
"d	c #8D582C",
"e	c #AD6122",
".......+@#$%%$&*=.......",
".....-;%%%%%%%%%%>-.....",
"....,%%%%%%%%%%%%%%'....",
"...)%%%%%%%%%%%%%%%%!...",
"..~%%%%%%%%%%%%%%%%%%{..",
".=%%%%%%%%%%%%%%%%%%%%=.",
".>%%%%%%%%%%%%%%%%%%%%>.",
"=%%%%%%%%%%%%%%%%%%%%%%]",
"^%%%%%%%/(_%%:<[%%%%%%%}",
"&%%%%%%%(|1__2|3%%%%%%%#",
"4%%%%%%%_2|11|1_%%%%%%%4",
"%%%%%%%%%56||78%%%%%%%%%",
"%%%%%%%%%56||79%%%%%%%%%",
"4%%%%%%%_2|11|2_%%%%%%%4",
"#%%%%%%%<|2__1|(%%%%%%%0",
"a%%%%%%%[(:%%_(b%%%%%%%^",
"=%%%%%%%%%%%%%%%%%%%%%%=",
".>%%%%%%%%%%%%%%%%%%%%c.",
".-%%%%%%%%%%%%%%%%%%%%=.",
"..'%%%%%%%%%%%%%%%%%%'..",
"...d%%%%%%%%%%%%%%%%)...",
"....'%%%%%%%%%%%%%%'....",
".....-e%%%%%%%%%%>-.....",
".......-d&$%%$#*-......."};
